<?xml version="1.0" standalone="no"?>
<!DOCTYPE svg PUBLIC "-//W3C//DTD SVG 20010904//EN"
 "http://www.w3.org/TR/2001/REC-SVG-20010904/DTD/svg10.dtd">
<svg version="1.0" xmlns="http://www.w3.org/2000/svg"
 width="800.000000pt" height="800.000000pt" viewBox="0 0 800.000000 800.000000"
 preserveAspectRatio="xMidYMid meet">
<metadata>
Created by potrace 1.11, written by Peter Selinger 2001-2013
</metadata>
<g transform="translate(0.000000,800.000000) scale(0.100000,-0.100000)"
fill="#000000" stroke="none">
<path d="M6567 7364 c-1 -1 -49 -5 -107 -8 -58 -4 -112 -9 -120 -11 -8 -2 -46
-6 -85 -10 -75 -7 -100 -10 -155 -18 -19 -3 -57 -9 -85 -12 -27 -4 -69 -11
-93 -16 -23 -5 -59 -12 -80 -15 -31 -4 -100 -18 -247 -49 -11 -3 -45 -10 -75
-16 -178 -36 -700 -174 -995 -263 -439 -134 -1243 -431 -1650 -611 -16 -7 -93
-41 -170 -75 -77 -34 -156 -69 -175 -78 -80 -35 -562 -275 -645 -320 -568
-310 -920 -585 -983 -771 -13 -37 -21 -18 176 -391 51 -96 119 -227 200 -380
30 -58 73 -139 95 -180 22 -41 62 -117 88 -167 27 -51 72 -136 100 -190 84
-159 143 -271 204 -388 147 -281 169 -323 195 -370 15 -27 58 -108 95 -180 79
-152 153 -292 205 -390 20 -38 63 -119 95 -180 32 -60 75 -141 95 -180 20 -38
64 -121 96 -183 173 -331 285 -545 309 -587 12 -22 55 -103 95 -180 133 -258
158 -296 220 -348 161 -133 350 -214 571 -244 107 -14 332 -8 469 12 60 10
202 43 285 69 584 177 1122 586 1334 1013 35 70 62 140 60 153 0 3 4 17 10 33
26 68 37 235 20 317 -9 46 -69 203 -124 325 -7 17 -54 129 -105 250 -50 121
-97 232 -105 247 l-13 27 70 -4 c39 -2 146 -5 239 -6 93 -1 192 -6 221 -10 29
-5 67 -11 83 -13 103 -17 231 -74 306 -137 62 -52 96 -105 104 -164 12 -94 14
-110 35 -275 12 -91 23 -175 25 -186 9 -57 19 -140 17 -146 -1 -5 3 -8 8 -8 6
0 10 3 10 8 0 4 10 18 23 32 35 38 94 138 123 210 20 49 27 83 28 140 1 69 -9
210 -19 285 -2 16 -14 109 -25 205 -18 147 -37 291 -65 491 -3 20 -8 56 -10
80 -3 24 -7 55 -9 69 -5 25 -10 60 -21 155 -4 28 -8 61 -10 75 -11 74 -43 328
-51 404 -3 33 -7 67 -9 76 -2 10 -6 53 -10 96 -4 43 -9 86 -10 94 -1 8 -6 53
-10 100 -4 47 -9 96 -11 110 -24 170 -23 1026 1 1285 2 22 6 90 10 150 3 61 7
137 10 170 2 33 6 103 10 155 3 52 8 113 10 135 2 22 7 87 10 145 3 58 8 123
10 145 3 22 7 83 10 135 3 52 7 118 10 145 16 184 16 215 0 216 -34 2 -117 4
-118 3z"/>
</g>
</svg>
